<svg width="76" height="40" viewBox="0 0 76 40" fill="none" xmlns="http://www.w3.org/2000/svg">
<path fill-rule="evenodd" clip-rule="evenodd" d="M57.9243 18.5343C57.0153 20.3163 55.9538 21.9428 54.5449 23.3671C53.8135 24.0966 50.4225 27.7057 49.0192 27.2644C48.4402 27.082 48.7492 25.4607 48.8262 25.0759C49.5982 21.2462 50.3702 20.3434 51.8022 17.803C52.8232 15.9994 54.8902 12.4596 56.9958 12.7112C58.4473 12.8827 58.9663 14.2887 59.0456 15.1185C59.1634 16.3459 58.4705 17.4711 57.9243 18.5343ZM25.4754 17.9349C24.9913 19.1336 24.6157 20.3741 24.3536 21.6413C23.9058 23.8759 23.9592 26.1833 24.5103 28.3941C24.55 28.5372 25.058 29.8534 24.9995 30.2638C24.8805 31.1029 23.6095 31.9499 23.0032 32.4668C22.0897 33.2672 21.1341 34.0165 20.1401 34.712C18.9182 35.5323 17.7568 36.4803 16.21 36.1065C15.8993 36.0494 15.6149 35.8936 15.3979 35.662C15.2497 35.4619 15.1488 35.2305 15.1033 34.985C14.4971 32.4229 15.5811 29.8859 16.4253 27.5167C17.4017 24.7984 18.5745 22.1297 19.4791 19.3923C19.8108 18.4288 20.6123 17.707 21.5981 17.4847C22.9617 17.149 24.448 17.1471 25.753 16.5939C25.9853 16.4756 25.9853 16.4432 25.9286 16.735C25.8006 17.1435 25.6493 17.544 25.4754 17.9349ZM30.0109 22.2376C30.2044 20.5509 30.5914 19.6493 31.1526 18.1594C31.7215 16.6283 32.6638 14.9735 33.8752 13.7965C34.4886 13.2006 35.0362 12.762 35.9205 12.7002C36.5281 12.6571 37.0448 13.4348 36.9887 14.162C36.7023 16.1204 36.139 16.8438 35.071 18.6729C34.3851 19.7777 33.6275 20.8393 32.8031 21.8513C32.3581 22.4136 30.5757 24.6624 29.9238 24.7618C29.74 24.7861 29.9722 22.5841 30.0109 22.2376ZM74.5262 24.0166C74.0444 23.621 72.7629 23.3833 71.9051 24.0957C70.0473 25.5963 68.1024 26.9919 66.0805 28.276C64.8822 29.0562 64.6381 28.9733 64.3962 27.5749C64.2396 26.6608 64.2318 25.5017 64.2026 24.5386C64.1825 23.5663 64.227 22.5934 64.3364 21.6268C64.6711 18.6527 64.7042 16.5193 64.8377 13.5226C64.855 13.1457 65.0001 11.8076 65.0874 11.4325C65.4746 9.76267 63.7847 8.43208 62.8458 8.68275C62.3169 8.80356 61.8471 9.09851 61.5157 9.51766C60.9506 10.2376 61.1713 10.345 60.368 9.5497C59.4001 8.59794 58.5464 7.85348 57.1369 7.70648C55.6543 7.54063 54.1637 7.65936 52.7969 8.27188C51.345 8.92776 50.1295 9.9568 49.0221 11.0669C47.8724 12.2165 47.131 13.517 46.2057 14.8363C45.3423 16.096 44.5812 17.4192 43.9292 18.7941C43.2768 20.1303 42.8759 21.444 42.2431 22.7821C41.0584 25.2812 38.7587 27.1508 36.5615 28.8131C35.7444 29.4482 34.8257 29.9482 33.8417 30.2926C31.5614 31.1181 30.5509 28.389 30.6109 27.9574C30.6535 27.6314 30.5664 27.7878 32.2621 26.363C33.8011 25.0741 36.5712 22.3675 38.3154 19.8533C39.2504 18.5057 40.2512 17.2807 40.8881 15.9821C41.552 14.6271 42.0592 12.7933 41.4688 11.0933C40.5957 8.58474 36.7898 6.86025 34.1921 7.72533C31.964 8.46601 30.9013 9.20858 29.6837 10.5184C29.281 10.9519 28.1157 12.6745 27.8795 12.7706C27.9569 12.7386 27.5252 12.1713 27.4923 12.1411C26.5709 11.2459 26.0056 11.5418 23.4891 11.751C23.1871 11.7755 22.4515 11.9753 22.2328 11.8735C22.1948 11.8522 22.1819 11.8049 22.2037 11.768C22.3644 11.4947 22.5092 11.2128 22.6374 10.9236C23.5336 8.99184 23.9167 8.39439 24.4996 7.1128C25.0823 5.83121 25.8992 4.58544 25.8256 3.13423C25.8527 2.52359 25.8779 1.9073 25.6649 1.37016C25.5776 1.14701 25.446 0.942712 25.2778 0.768944C25.1847 0.672825 25.0823 0.585564 24.9719 0.508857C23.5298 -0.50322 21.7934 0.0263774 20.748 1.81306C20.0337 3.03434 19.1568 4.1463 18.4773 5.39397C17.5927 7.03176 16.6422 8.63752 15.8059 10.2942C15.1691 11.5588 14.7354 13.5547 13.1558 14.0108C11.3788 14.5253 9.58622 15.0134 7.82464 15.5732C6.06307 16.1329 4.40409 16.9584 2.67736 17.5954C1.9224 17.8744 1.03774 18.0666 0.569275 18.7262C0.100812 19.3859 -0.311513 20.1605 0.329236 21.0124C1.47329 22.5201 3.32198 21.8925 4.86868 21.4402C6.75415 20.888 8.59315 20.1793 10.5115 19.7308C10.74 19.678 11.0923 19.4707 11.3129 19.6686C11.4078 19.8118 11.2684 20.1982 11.1405 20.4225C10.1921 22.1319 9.71785 24.0034 9.17776 25.8541C8.23116 29.0751 7.28649 33.0348 8.03177 36.365C8.32601 37.6749 8.77318 38.8151 9.9908 39.537C11.642 40.5227 14.2166 39.7405 15.955 38.9885C19.3097 37.5373 22.5657 34.8648 25.2894 32.5108C25.8701 32.0114 26.0211 31.9681 26.5593 32.4939C27.26 33.1818 27.6685 33.8132 28.4293 34.4295C29.161 35.0288 30.4812 35.3963 31.4123 35.3982C33.3946 35.3982 35.462 34.1845 37.0261 33.0065C38.4218 31.9568 39.4285 30.7581 40.7042 29.5896C41.2675 29.077 41.4533 29.42 41.7127 30.3435C42.4289 32.9274 44.111 34.5482 46.9935 34.7894C47.607 34.8215 48.2205 34.7299 48.7958 34.5199C49.8972 34.0619 51.1514 33.2836 51.9509 32.4298C53.6931 30.564 55.2807 28.8906 56.7904 26.8153C56.9377 26.6118 57.2223 26.38 57.3965 26.4158C57.5241 26.5062 57.4912 26.9246 57.534 27.2168C57.714 29.6084 58.256 32.0003 59.9032 34.0864C61.0029 35.4792 63.1284 35.9052 64.8339 35.7186C66.9632 35.487 68.7517 34.0734 70.3276 32.7804C71.7959 31.5487 73.0498 30.0937 74.0405 28.472C74.8516 27.1678 76.106 25.3057 74.5262 24.0166Z" fill="#47363D"/>
</svg>
