<svg width="74" height="39" viewBox="0 0 74 39" fill="none" xmlns="http://www.w3.org/2000/svg">
<path fill-rule="evenodd" clip-rule="evenodd" d="M56.4762 18.071C55.5899 19.8084 54.555 21.3943 53.1813 22.783C52.4681 23.4942 49.1619 27.0131 47.7937 26.5828C47.2292 26.405 47.5305 24.8242 47.6056 24.449C48.3582 20.715 49.1109 19.8348 50.5072 17.3579C51.5026 15.5994 53.518 12.1481 55.5709 12.3934C56.9862 12.5606 57.4922 13.9315 57.5695 14.7406C57.6843 15.9372 57.0088 17.0343 56.4762 18.071ZM24.8385 17.4865C24.3666 18.6553 24.0003 19.8648 23.7447 21.1003C23.3081 23.279 23.3603 25.5287 23.8976 27.6843C23.9362 27.8238 24.4316 29.1071 24.3745 29.5072C24.2585 30.3253 23.0192 31.1511 22.4282 31.6551C21.5375 32.4355 20.6058 33.1661 19.6366 33.8442C18.4453 34.644 17.3128 35.5683 15.8048 35.2038C15.5019 35.1482 15.2245 34.9962 15.013 34.7704C14.8684 34.5753 14.7701 34.3497 14.7257 34.1104C14.1346 31.6124 15.1916 29.1387 16.0147 26.8287C16.9667 24.1784 18.1102 21.5764 18.9922 18.9075C19.3155 17.9681 20.097 17.2643 21.0582 17.0476C22.3876 16.7203 23.8368 16.7184 25.1092 16.179C25.3357 16.0637 25.3357 16.0321 25.2804 16.3167C25.1556 16.7149 25.0081 17.1054 24.8385 17.4865ZM29.2606 21.6816C29.4493 20.0371 29.8266 19.1581 30.3737 17.7054C30.9284 16.2126 31.8472 14.5991 33.0283 13.4516C33.6264 12.8706 34.1603 12.443 35.0225 12.3827C35.6149 12.3407 36.1187 13.099 36.0639 13.8079C35.7847 15.7174 35.2355 16.4227 34.1942 18.2061C33.5254 19.2832 32.7868 20.3183 31.9831 21.3051C31.5491 21.8532 29.8113 24.0459 29.1757 24.1427C28.9965 24.1665 29.2229 22.0195 29.2606 21.6816ZM72.663 23.4162C72.1933 23.0304 70.9438 22.7987 70.1075 23.4933C68.2962 24.9564 66.3999 26.3171 64.4285 27.5691C63.2602 28.3298 63.0222 28.249 62.7863 26.8855C62.6336 25.9943 62.626 24.8642 62.5975 23.9252C62.5779 22.9772 62.6213 22.0286 62.7279 21.0861C63.0543 18.1864 63.0865 16.1063 63.2168 13.1846C63.2336 12.817 63.3751 11.5124 63.4603 11.1467C63.8377 9.51861 62.19 8.22128 61.2746 8.46568C60.759 8.58347 60.3009 8.87105 59.9778 9.27972C59.4269 9.98167 59.642 10.0864 58.8588 9.31096C57.9151 8.38299 57.0827 7.65715 55.7085 7.51382C54.2629 7.35211 52.8096 7.46788 51.477 8.06509C50.0614 8.70456 48.8763 9.70788 47.7965 10.7902C46.6756 11.9111 45.9527 13.179 45.0505 14.4653C44.2088 15.6936 43.4666 16.9837 42.831 18.3242C42.1949 19.6271 41.804 20.9079 41.187 22.2125C40.0319 24.6492 37.7897 26.472 35.6475 28.0928C34.8508 28.712 33.9551 29.1995 32.9957 29.5353C30.7723 30.3401 29.7871 27.6793 29.8456 27.2585C29.8872 26.9406 29.8022 27.0931 31.4556 25.7039C32.9561 24.4472 35.6569 21.8083 37.3575 19.357C38.2691 18.0431 39.2449 16.8487 39.8658 15.5826C40.5132 14.2614 41.0077 12.4734 40.4321 10.8159C39.5808 8.37012 35.87 6.68875 33.3373 7.53219C31.1649 8.25436 30.1287 8.97836 28.9416 10.2555C28.549 10.6781 27.4128 12.3577 27.1825 12.4514C27.258 12.4201 26.8371 11.867 26.805 11.8376C25.9066 10.9648 25.3555 11.2533 22.9019 11.4572C22.6074 11.4811 21.8902 11.6759 21.677 11.5767C21.64 11.5559 21.6273 11.5098 21.6486 11.4738C21.8053 11.2073 21.9465 10.9324 22.0714 10.6505C22.9453 8.76704 23.3188 8.18453 23.8871 6.93498C24.4552 5.68543 25.2517 4.4708 25.18 3.05587C25.2064 2.4605 25.2309 1.85961 25.0233 1.33591C24.9382 1.11834 24.8099 0.919145 24.6458 0.749721C24.5551 0.656004 24.4552 0.570925 24.3476 0.496136C22.9415 -0.490639 21.2485 0.0257179 20.2293 1.76773C19.5329 2.95848 18.6779 4.04265 18.0154 5.25912C17.1529 6.85597 16.2261 8.42158 15.4108 10.0368C14.7898 11.2698 14.367 13.2158 12.8269 13.6605C11.0943 14.1621 9.34656 14.6381 7.62902 15.1838C5.91149 15.7296 4.29399 16.5344 2.61042 17.1555C1.87434 17.4275 1.01179 17.6149 0.555043 18.2581C0.0982918 18.9012 -0.303725 19.6565 0.321005 20.4871C1.43646 21.9571 3.23893 21.3452 4.74696 20.9042C6.58529 20.3658 8.37832 19.6749 10.2487 19.2375C10.4715 19.1861 10.815 18.9839 11.0301 19.1769C11.1226 19.3165 10.9867 19.6932 10.862 19.9119C9.93732 21.5786 9.4749 23.4033 8.94832 25.2078C8.02538 28.3482 7.10433 32.2089 7.83098 35.4559C8.11786 36.733 8.55385 37.8448 9.74103 38.5485C11.351 39.5096 13.8612 38.747 15.5561 38.0138C18.827 36.5989 22.0016 33.9932 24.6572 31.6981C25.2234 31.2111 25.3706 31.1689 25.8953 31.6815C26.5785 32.3523 26.9768 32.9678 27.7185 33.5687C28.432 34.1531 29.7192 34.5114 30.627 34.5132C32.5597 34.5132 34.5755 33.3298 36.1005 32.1814C37.4613 31.1578 38.4427 29.9891 39.6865 28.8498C40.2358 28.35 40.417 28.6845 40.6699 29.5849C41.3682 32.1042 43.0082 33.6845 45.8187 33.9197C46.4168 33.9509 47.0149 33.8616 47.5759 33.6569C48.6498 33.2104 49.8727 32.4515 50.6522 31.6191C52.3508 29.7999 53.8987 28.1683 55.3707 26.1449C55.5143 25.9465 55.7917 25.7205 55.9616 25.7554C56.086 25.8436 56.0539 26.2515 56.0956 26.5363C56.2711 28.8682 56.7996 31.2003 58.4056 33.2343C59.4778 34.5923 61.5502 35.0075 63.213 34.8256C65.2891 34.5998 67.0329 33.2216 68.5695 31.9609C70.001 30.76 71.2235 29.3414 72.1895 27.7602C72.9803 26.4886 74.2033 24.673 72.663 23.4162Z" fill="#47363D"/>
</svg>
